<svg id="Layer_1" data-name="Layer 1" xmlns="http://www.w3.org/2000/svg" viewBox="0 0 692.09 606"><defs><style>.cls-1{fill:#1d1d1b;}.cls-2{fill:#ffcf00;}.cls-3{fill:#e20613;}.cls-4{fill:#fff;}</style></defs><path class="cls-1" d="M833.25,260.34a47,47,0,0,0-4.25-3.89,45.94,45.94,0,0,0-28.06-10.24,46,46,0,1,0-82,27.64l-51.33,49.29a193.4,193.4,0,0,0-61.07-61.39,196.49,196.49,0,0,0-209,0,193.27,193.27,0,0,0-61.7,62.44l-54.71-52.52a46,46,0,0,0-69.2-60.53,47.37,47.37,0,0,0-5.38,6.79A45.78,45.78,0,0,0,199.08,244a46,46,0,1,0,29.27,82.23l77.5,74.4H232.91A20.36,20.36,0,0,0,212.57,421v3.72a20.37,20.37,0,0,0,20.34,20.34h76.21a48.45,48.45,0,0,0,.84,6.09,18.31,18.31,0,0,1,.5,4.23l5.39,1.38-4.85,1c11.38,56.9,41.19,97,78.6,122.33L289.1,672.21a46,46,0,1,0-31.16,81.53A45.81,45.81,0,0,0,264.79,780a46,46,0,1,0,75.8-52l35.71-32.74c6.21,45,31.57,79.76,69.13,93a159.34,159.34,0,0,0,55.29,9.9c30.32,0,59.68-8.73,82.21-25.53,23.93-17.84,38.3-43.38,41.68-73.35l33.5,30.23A46,46,0,0,0,694.92,803q1.2,0,2.4-.06A46.08,46.08,0,0,0,741,754.56a46,46,0,0,0,27.73-11.1,43.64,43.64,0,0,0,4.12-4,46,46,0,0,0-3.31-65h0a46.1,46.1,0,0,0-60.33-1.17l-99.85-90.16c43-27,76.89-72.27,85.56-137.65l.06-.42h80.4a20.36,20.36,0,0,0,20.34-20.34V421a20.36,20.36,0,0,0-20.34-20.34H696.45l75.22-72.22a46,46,0,0,0,61.58-68.09Z" transform="translate(-153.95 -197)"/><path class="cls-2" d="M775.33,411.51H232.91a9.48,9.48,0,0,0-9.47,9.48v3.72a9.47,9.47,0,0,0,9.47,9.47H684.63c0-.05,0-.09,0-.14H685s0,.09,0,.14h90.36a9.47,9.47,0,0,0,9.48-9.47V421A9.48,9.48,0,0,0,775.33,411.51Z" transform="translate(-153.95 -197)"/><path class="cls-2" d="M403.25,344.7H667.13C637.49,284.23,574.69,242.53,502,242.53S366.54,284.23,336.9,344.7h66.35Zm198-46.78c2-1.92,4.55-2.1,6.68-.21a73.27,73.27,0,0,1,22.3,36.78c0,3.16-.51,5.49-3.43,6.36-3.11.92-5.57-.13-6.49-3.14a81,81,0,0,0-19.37-32.57C598.82,302.91,598.89,300.12,601.24,297.92Zm-27.9,12.5a4.81,4.81,0,0,1,7.11,1.36,50.18,50.18,0,0,1,7.93,20.71c.06,3.24-.86,5.7-4,6.33-3.49.69-5.79-1.11-6.43-4.42a57.08,57.08,0,0,0-6.46-17C569.83,314.45,570.87,312.07,573.34,310.42Zm-134.43,16.1a35.21,35.21,0,0,1,8-13c1.64-1.8,3.92-1.66,6.11-.57,2,1,2.88,2.56,2.92,6-2.78,4.06-6,9.19-9.71,13.91-1.19,1.51-3.72,1-5.41-.36A5.32,5.32,0,0,1,438.91,326.52Zm-8.2-22.73c2.93,2.34,3.16,5.13.68,8.28a111.46,111.46,0,0,0-15,24.19,6.06,6.06,0,0,1-1.23,1.8,4.18,4.18,0,0,1-.44.4c-.12.1-.23.21-.36.3l-.08.05a5,5,0,0,1-7.44-2.3,5.1,5.1,0,0,1-.38-1.92,2.4,2.4,0,0,1,0-.28l0-.06c.36-5.19,3.17-9.33,5.67-13.45A183,183,0,0,1,423,305.2C424.91,302.68,427.86,301.51,430.71,303.79Zm-54.2,20.57a138,138,0,0,1,27.39-33.24,4.72,4.72,0,0,1,6.7,0c2,1.85,2.58,4.65.71,6.65a258.87,258.87,0,0,0-27.05,33.64c-.59.88-2.07,1.17-2.7,1.51A5.5,5.5,0,0,1,376.51,324.36Z" transform="translate(-153.95 -197)"/><path class="cls-3" d="M344.08,400.23H683.84a177.56,177.56,0,0,0-11.57-44H331.77a177.57,177.57,0,0,0-11.58,44h23.89Z" transform="translate(-153.95 -197)"/><path class="cls-4" d="M456.43,691.17c11.1,2.66,33.31,5.22,40.16,4.89,0-2.49,0-32.44,0-33.92a200.28,200.28,0,0,1-52.06-7.56l-5.1,31.94Q447.76,689.21,456.43,691.17Z" transform="translate(-153.95 -197)"/><path class="cls-4" d="M386.63,659.86A188.55,188.55,0,0,0,430,683.23l5.05-31.6a190.52,190.52,0,0,1-45.26-22.43A120.66,120.66,0,0,0,386.63,659.86Z" transform="translate(-153.95 -197)"/><path class="cls-4" d="M506.39,662v34a199.93,199.93,0,0,0,50.49-7.81c-.59-3.92-4.28-29.75-4.79-33A199.56,199.56,0,0,1,506.39,662Z" transform="translate(-153.95 -197)"/><path class="cls-4" d="M562.44,641.54A189.82,189.82,0,0,0,607,620.82a118.09,118.09,0,0,0-13.17-28.58c-12.16,6.77-25.63,11-38.76,15.23l5,34.79Z" transform="translate(-153.95 -197)"/><path class="cls-4" d="M506.39,650.76c14.89-.49,29.92-2,44.2-5.88-1.6-11.65-3.46-23.38-5.08-35a201.19,201.19,0,0,1-39.12,4.67C505.64,622.55,506.76,642.24,506.39,650.76Z" transform="translate(-153.95 -197)"/><path class="cls-4" d="M451.2,644.37c14.21,3.52,31.18,6.75,45.39,6.37v-18.2h.05c-.11-6,.07-12.1-.05-18.07l-1.33,0c-14.14-2.3-29.29-2-43.32-6.16L446.38,643C448,643.5,449.58,643.94,451.2,644.37Z" transform="translate(-153.95 -197)"/><path class="cls-4" d="M566.6,650.67c-1.71.57-3.31,1.17-5,1.71l4.77,32.83c16.54-5.87,33.89-13.11,47.41-24.29-1.47-10.58-2.06-21.57-4.52-31.83A189.56,189.56,0,0,1,566.6,650.67Z" transform="translate(-153.95 -197)"/><path class="cls-4" d="M396.76,620.8a192.38,192.38,0,0,0,40.17,19.26c.8-5,4.8-30,5.51-34.49a191.57,191.57,0,0,1-35.9-15.31,120,120,0,0,0-13.62,28C394.19,619.12,395.5,619.92,396.76,620.8Z" transform="translate(-153.95 -197)"/><path class="cls-4" d="M673.57,444H319.94c.21,4.72,2.22,9.36,1.05,14,.21-.82.44-1.63.66-2.44C362.2,658.35,656.91,649.07,684.1,444ZM429.64,555.65c-60.81-.36-70.23-98-4.46-101.64C492.26,454.72,498.23,549.74,429.64,555.65Zm82.94,24.66c-13.15,7.83-35.37-3.3-28.4-17.71C495.06,539.51,541.32,561.65,512.58,580.31Zm64.58-25.71c-66.74,2.39-69-98.94-2.31-99.55C642.18,453.75,639.5,554.89,577.16,554.6Z" transform="translate(-153.95 -197)"/><path class="cls-4" d="M265.44,271.68a35.15,35.15,0,1,0-45.69-53,36,36,0,0,0-4.12,5.19,35.22,35.22,0,0,0-2.6,33.53,35.16,35.16,0,0,0-35.17,5.32,36.16,36.16,0,0,0-3.25,3,35.15,35.15,0,1,0,50.71,48.69,33.13,33.13,0,0,0,2.84-3.37l81,77.82a193.93,193.93,0,0,1,18.7-57.16Z" transform="translate(-153.95 -197)"/><path class="cls-4" d="M825.41,267.87a33.64,33.64,0,0,0-3.25-3A35.18,35.18,0,0,0,787,259.58a35.14,35.14,0,1,0-52.41,14.29l-59,56.68a193.7,193.7,0,0,1,19,56.83l77.28-74.19a35.82,35.82,0,0,0,2.84,3.36,35.15,35.15,0,1,0,50.71-48.68Z" transform="translate(-153.95 -197)"/><path class="cls-2" d="M685,434.18c0-.05,0-.09,0-.14h-.36s0,.09,0,.14Z" transform="translate(-153.95 -197)"/><path class="cls-4" d="M762.2,682.52a35.14,35.14,0,0,0-49.64,2.53,37.11,37.11,0,0,0-2.74,3.46l-88.58-80-12.5-11.28a201.2,201.2,0,0,1,15.54,56.9,206.16,206.16,0,0,1,1.43,31.41l1.31,1.18L673.77,729a35.15,35.15,0,1,0,52.83,12.68,35.15,35.15,0,0,0,35.6-59.11Z" transform="translate(-153.95 -197)"/><path class="cls-4" d="M375.52,659.87a199.65,199.65,0,0,1,14.29-65.27l-10.06,9.23-91.19,83.61A37,37,0,0,0,285.8,684,35.15,35.15,0,0,0,234,731.52a36.44,36.44,0,0,0,3.18,3.05,35.18,35.18,0,0,0,35,6.12,35.15,35.15,0,1,0,57.64-8.64,34.22,34.22,0,0,0-4.92-4.44L373,683.54l2.56-2.34A205,205,0,0,1,375.52,659.87Z" transform="translate(-153.95 -197)"/><path class="cls-4" d="M385.68,674.4c.33,44.4,20.05,88.39,63.44,103.57,75.29,28,171.32-8.2,165.14-101a219.6,219.6,0,0,1-228.58-2.54Z" transform="translate(-153.95 -197)"/></svg>